<?xml version="1.0" encoding="utf-8"?>
<!-- Generator: Adobe Illustrator 25.2.1, SVG Export Plug-In . SVG Version: 6.00 Build 0)  -->
<svg version="1.1" xmlns="http://www.w3.org/2000/svg" xmlns:xlink="http://www.w3.org/1999/xlink" x="0px" y="0px"
	 viewBox="0 0 274.7 199.1" style="enable-background:new 0 0 274.7 199.1;" xml:space="preserve">
<style type="text/css">
	.st0{fill:#BCBCBC;}
	.st1{fill:#878787;}
</style>
<g id="Layer_1">
	<path class="st0" d="M248.1,196.6H26.6c-13.3,0-24.1-10.8-24.1-24.1V26.6c0-13.3,10.8-24.1,24.1-24.1h221.4
		c13.3,0,24.1,10.8,24.1,24.1v145.9C272.2,185.8,261.4,196.6,248.1,196.6z"/>
</g>
<g id="Layer_2">
</g>
<g id="Layer_3">
	<path class="st1" d="M248.1,0H26.6C11.9,0,0,11.9,0,26.6v145.9c0,14.7,11.9,26.6,26.6,26.6h221.4c14.7,0,26.6-11.9,26.6-26.6V26.6
		C274.7,11.9,262.7,0,248.1,0z M269.7,26.6v15.5h-72.2l-27.5,23.5h-29.8V5h107.9C260,5,269.7,14.7,269.7,26.6z M173.4,101.9h96.3
		v49.9h-70.4l-26-22.2V101.9z M173.4,96.9V69.3l26-22.2h70.4v49.8H173.4z M168.4,70.6v57.8h-28.2h-5h-28.2V70.6h28.2h5H168.4z
		 M26.6,5h108.5v60.6h-29.8L77.8,42.1H5V26.6C5,14.7,14.7,5,26.6,5z M101.9,101.9v27.7l-26,22.2H5v-49.9H101.9z M5,96.9V47.1h70.9
		l26,22.2v27.6H5z M5,172.5v-15.7h72.8l27.3-23.3h30.1v60.6H26.6C14.7,194.1,5,184.4,5,172.5z M248.1,194.1H140.1v-60.6h30.1
		l27.3,23.3h72.2v15.7C269.7,184.4,260,194.1,248.1,194.1z"/>
</g>
</svg>
