<?xml version="1.0" encoding="utf-8"?>
<!-- Generator: Adobe Illustrator 25.2.1, SVG Export Plug-In . SVG Version: 6.00 Build 0)  -->
<svg version="1.1" id="Layer_1" xmlns="http://www.w3.org/2000/svg" xmlns:xlink="http://www.w3.org/1999/xlink" x="0px" y="0px"
	 viewBox="0 0 95.8 31.1" style="enable-background:new 0 0 95.8 31.1;" xml:space="preserve">
<style type="text/css">
	.st0-visa{fill:#181818;}
</style>
<g>
	<path class="st0-visa" d="M89.5,0.5c2.1,10,4.2,20,6.3,30.1c-2.4,0-4.8,0-7.2,0c-0.3-1.4-0.6-2.9-0.9-4.3c0-0.2-0.1-0.2-0.3-0.2
		c-3.1,0-6.3,0-9.4,0c-0.2,0-0.2,0-0.3,0.3c-0.5,1.4-1,2.9-1.5,4.3c-2.7,0-5.4,0-8.1,0c4.1-9.5,7.7-19.2,12-28.6
		c0.6-1,1.7-1.5,2.8-1.5C85.1,0.5,87.3,0.5,89.5,0.5z M86.5,19.9c0-0.5-2.3-11.1-2.4-11.3c-1.3,3.8-2.7,7.5-4,11.3
		C82.2,19.9,84.3,19.9,86.5,19.9z"/>
	<path class="st0-visa" d="M15.7,30.6c-2.2-8.3-4.2-16.6-6.5-24.9C8.3,3.2,2.4,2,0,1.4c0.1-0.3,0.1-0.6,0.2-0.9c4.3,0,8.6,0,12.9,0
		c1.8-0.1,3.5,1.2,3.7,3c1.1,5.8,2.2,11.6,3.3,17.4c2.8-6.6,5.4-13.6,8.1-20.3c2.7,0,5.4,0,8.1,0c-4.1,10-8.3,19.9-12.4,29.8
		c-0.1,0.3-0.1,0.3-0.4,0.3C20.9,30.6,18.3,30.6,15.7,30.6z"/>
	<path class="st0-visa" d="M46.3,29.4c0.5-2.2,0.9-4.4,1.4-6.5c3.2,1.6,9.2,3.3,12,0.4c0.9-1.1,0.5-2.6-0.6-3.4c-2.8-2.1-6.5-3.1-8.5-6
		c-1.5-2.2-1.4-5.1-0.4-7.5c3.5-6.9,13-7.4,19.5-5c-0.5,2.1-0.9,4.2-1.4,6.3c-3-1.2-6.7-2.2-9.7-0.6c-1.5,0.9-1.6,2.5-0.2,3.5
		c3,2.2,7.1,3.3,9,6.8c1.3,2.6,1,5.8-0.5,8.3C62.7,32.3,53,32,46.3,29.4z"/>
	<path class="st0-visa" d="M39.7,0.5c2.6,0,5.1,0,7.7,0c-2,10-4.2,20-6.3,30.1c-2.6,0-5.2,0-7.8,0C35.4,20.5,37.5,10.5,39.7,0.5z"/>
</g>
</svg>
