<?xml version="1.0" encoding="utf-8"?>
<!-- Generator: Adobe Illustrator 25.2.1, SVG Export Plug-In . SVG Version: 6.00 Build 0)  -->
<svg version="1.1" id="Layer_1" xmlns="http://www.w3.org/2000/svg" xmlns:xlink="http://www.w3.org/1999/xlink" x="0px" y="0px"
	 viewBox="0 0 265.2 207.7" style="enable-background:new 0 0 265.2 207.7;" xml:space="preserve">
<style type="text/css">
	.st0-bank{fill:#706EFF;}
</style>
<path class="st0-bank" d="M261.2,86.2c-1.4,0-3.3-0.3-5.2-0.9c2.4-3.8,3.6-7.9,3.6-11.5c0-7.7-5.4-11.8-10.4-11.8c-2.7,0-5.4,1.2-7.2,3.3
	c-1.3,1.5-3,4.2-3,8.5c0,5.4,1.9,9.7,4.8,12.9c-1.3,1-2.9,1.8-4.5,2.5c-3.8-48.8-52.1-87.3-111.1-87.3c-11.1,0-21.8,1.4-31.9,3.9
	c-26.2-8.9-59.2-6-61.4-1.3c-1.3,2.9,5.6,14.6,13.1,26c-12.2,10.6-21.4,23.6-26.5,38H4c-1,0-2.1,0.4-2.8,1.2C0.4,70.5,0,71.5,0,72.5
	v34.2c0,1.4,0.4,2.9,1.2,4.2c0.8,1.3,1.9,2.3,3.2,2.9l17.3,8.8c7.3,20,22.2,37.1,42,48.9v32c0,1,0.4,2.1,1.2,2.8
	c0.8,0.8,1.8,1.2,2.8,1.2h30.4c1.5,0,3-0.4,4.3-1.3c1.3-0.9,2.3-2.1,3-3.4l6.8-15c5.2,0.6,10.6,1,16,1c8.6,0,17-0.8,25-2.4v17
	c0,1,0.4,2.1,1.2,2.8c0.8,0.8,1.8,1.2,2.8,1.2h30.6c1.4,0,2.9-0.4,4.2-1.2c1.3-0.8,2.3-1.9,3-3.2c0,0,38.1-76.1,38.5-77.1
	c2.1-5.1,3.7-10.4,4.8-15.9c0.8-4.1,1.2-8.3,1.3-12.6c4.4-1.4,8-3.5,11-6.1c3.5,1.7,7.4,2.6,10.7,2.6c2.2,0,4-1.8,4-4
	C265.2,88,263.4,86.2,261.2,86.2z M55.7,70.8c-3.6,0-6.5-2.9-6.5-6.5c0-3.6,2.9-6.5,6.5-6.5c3.6,0,6.5,2.9,6.5,6.5
	C62.2,67.9,59.3,70.8,55.7,70.8z M160.6,24.6H95.8v-5.3h64.8V24.6z M249.4,80.8c-1.4-1.8-2.3-4.1-2.3-7c0-2.3,0.9-3.8,2.2-3.8
	c1.2,0,2.4,1.2,2.4,3.8C251.7,76,250.9,78.4,249.4,80.8z"/>
</svg>
