<?xml version="1.0" encoding="utf-8"?>
<!-- Generator: Adobe Illustrator 25.2.1, SVG Export Plug-In . SVG Version: 6.00 Build 0)  -->
<svg version="1.1" id="Layer_1" xmlns="http://www.w3.org/2000/svg" xmlns:xlink="http://www.w3.org/1999/xlink" x="0px" y="0px"
	 viewBox="0 0 265.2 319" style="enable-background:new 0 0 265.2 319;" xml:space="preserve">
<style type="text/css">
	.st0-money{fill:#706EFF;}
	.st1-money{fill:#43AAEF;}
	.st2-money{fill:#54D1C1;}
</style>
<path class="st0-money" d="M-160.8,226.2c-1.4,0-3.3-0.3-5.2-0.9c2.4-3.8,3.6-7.9,3.6-11.5c0-7.7-5.4-11.8-10.4-11.8
	c-2.7,0-5.4,1.2-7.2,3.3c-1.3,1.5-3,4.2-3,8.5c0,5.4,1.9,9.7,4.8,12.9c-1.3,1-2.9,1.8-4.5,2.5c-3.8-48.8-52.1-87.3-111.1-87.3
	c-11.1,0-21.8,1.4-31.9,3.9c-26.2-8.9-59.2-6-61.4-1.3c-1.3,2.9,5.6,14.6,13.1,26c-12.2,10.6-21.4,23.6-26.5,38H-418
	c-1,0-2.1,0.4-2.8,1.2c-0.8,0.8-1.2,1.8-1.2,2.8v34.2c0,1.4,0.4,2.9,1.2,4.2c0.8,1.3,1.9,2.3,3.2,2.9l17.3,8.8
	c7.3,20,22.2,37.1,42,48.9v32c0,1,0.4,2.1,1.2,2.8c0.8,0.8,1.8,1.2,2.8,1.2h30.4c1.5,0,3-0.4,4.3-1.3c1.3-0.9,2.3-2.1,3-3.4l6.8-15
	c5.2,0.6,10.6,1,16,1c8.6,0,16.9-0.8,25-2.4v17c0,1,0.4,2.1,1.2,2.8c0.8,0.8,1.8,1.2,2.8,1.2h30.6c1.4,0,2.9-0.4,4.2-1.2
	c1.3-0.8,2.3-1.9,3-3.2c0,0,38.1-76.1,38.5-77.1c2.1-5.1,3.7-10.4,4.8-15.9c0.8-4.1,1.2-8.3,1.3-12.6c4.4-1.4,8-3.5,11-6.1
	c3.5,1.7,7.4,2.6,10.7,2.6c2.2,0,4-1.8,4-4C-156.8,228-158.6,226.2-160.8,226.2z M-366.3,210.8c-3.6,0-6.5-2.9-6.5-6.5
	c0-3.6,2.9-6.5,6.5-6.5c3.6,0,6.5,2.9,6.5,6.5S-362.7,210.8-366.3,210.8z M-261.4,164.6h-64.8v-5.3h64.8V164.6z M-172.6,220.8
	c-1.4-1.8-2.3-4.1-2.3-7c0-2.3,0.9-3.8,2.2-3.8c1.2,0,2.4,1.2,2.4,3.8C-170.3,216-171.1,218.4-172.6,220.8z"/>
<path class="st1-money" d="M223.2,33.1c-23.2,0-42,18.8-42,42s18.8,42,42,42s42-18.8,42-42S246.4,33.1,223.2,33.1z M227.2,95.7V98
	c0,2.3-1.9,4.2-4.2,4.2c-2.3,0-4.2-1.9-4.2-4.2v-2.3c-2.9-0.4-5.7-1.2-8.4-2.3c-2.6-1-3.8-3.9-2.8-6.4c0.7-1.9,2.5-3.1,4.5-3.2
	c3.5,1.2,7.2,2,10.9,2.3c6,0,6-2.1,6-3c0-1.5-4.2-2.2-6.6-2.8c-5.9-1.5-14.8-3.8-14.8-13c0.2-6.4,4.9-11.7,11.2-12.6v-2.4
	c0-2.3,1.9-4.2,4.2-4.2c2.3,0,4.2,1.9,4.2,4.2v2.2c2.5,0.2,5,0.8,7.3,1.6c2.6,0.9,3.9,3.8,2.9,6.3c-0.7,1.9-2.5,3.2-4.5,3.2
	c-2.9-0.9-5.9-1.4-8.9-1.6c-2.8,0-6.2,0.8-6.2,2.9c0,1.5,2,2.2,6.9,3.3c5.8,1.4,14.5,3.5,14.5,13.1
	C239.2,89.8,234.4,94.5,227.2,95.7L227.2,95.7z"/>
<path class="st2-money" d="M192.2,143.5c-16.9,0-30.6,13.7-30.6,30.6s13.7,30.6,30.6,30.6s30.6-13.7,30.6-30.6S209.1,143.5,192.2,143.5z
	 M195,189.1v1.6c0,1.7-1.4,3.1-3.1,3.1s-3.1-1.4-3.1-3.1v-1.7c-2.1-0.3-4.2-0.8-6.1-1.7c-1.9-0.7-2.8-2.8-2.1-4.7
	c0.5-1.4,1.8-2.3,3.3-2.3c2.6,0.9,5.2,1.4,7.9,1.7c4.4,0,4.4-1.5,4.4-2.2c0-1.1-3-1.6-4.8-2c-4.3-1.1-10.8-2.8-10.8-9.5
	c0.1-4.6,3.6-8.5,8.2-9.2v-1.8c0-1.7,1.4-3.1,3.1-3.1c1.7,0,3.1,1.4,3.1,3.1v1.6c1.8,0.2,3.6,0.6,5.3,1.2c1.9,0.7,2.8,2.8,2.1,4.6
	c-0.5,1.4-1.8,2.3-3.3,2.3c-2.1-0.6-4.3-1-6.5-1.1c-2,0-4.5,0.6-4.5,2.1c0,1.1,1.5,1.6,5,2.4c4.2,1,10.6,2.5,10.6,9.5
	C203.8,184.8,200.3,188.3,195,189.1L195,189.1z"/>
<path class="st2-money" d="M132.2,281.2c-10.5,0-18.9,8.5-18.9,18.9c0,10.5,8.5,18.9,18.9,18.9c10.5,0,18.9-8.5,18.9-18.9
	C151.1,289.6,142.7,281.2,132.2,281.2z M134,309.4v1c0,1-0.8,1.9-1.9,1.9c-1,0-1.9-0.8-1.9-1.9v-1c-1.3-0.2-2.6-0.5-3.8-1
	c-1.2-0.4-1.7-1.7-1.3-2.9c0.3-0.8,1.1-1.4,2-1.4c1.6,0.5,3.2,0.9,4.9,1c2.7,0,2.7-0.9,2.7-1.4c0-0.7-1.9-1-3-1.3
	c-2.7-0.7-6.7-1.7-6.7-5.8c0.1-2.9,2.2-5.3,5.1-5.7v-1.1c0-1,0.8-1.9,1.9-1.9c1,0,1.9,0.8,1.9,1.9v1c1.1,0.1,2.2,0.4,3.3,0.7
	c1.2,0.4,1.7,1.7,1.3,2.9c-0.3,0.9-1.1,1.4-2,1.5c-1.3-0.4-2.7-0.6-4-0.7c-1.3,0-2.8,0.4-2.8,1.3c0,0.7,0.9,1,3.1,1.5
	c2.6,0.6,6.5,1.6,6.5,5.9C139.4,306.7,137.2,308.8,134,309.4L134,309.4z"/>
<path class="st2-money" d="M45.7,0C20.5,0,0,20.5,0,45.7s20.5,45.7,45.7,45.7s45.7-20.5,45.7-45.7S70.9,0,45.7,0z M50,68.1v2.4
	c0,2.5-2,4.6-4.6,4.6c-2.5,0-4.6-2-4.6-4.6v-2.5c-3.1-0.4-6.2-1.3-9.1-2.5c-2.8-1.1-4.2-4.2-3.1-7c0.8-2,2.7-3.4,4.9-3.4
	c3.8,1.3,7.8,2.2,11.8,2.5c6.5,0,6.5-2.3,6.5-3.3c0-1.6-4.5-2.3-7.2-3c-6.4-1.6-16.1-4.1-16.1-14.1c0.2-6.9,5.3-12.7,12.2-13.7v-2.7
	c0-2.5,2-4.6,4.6-4.6c2.5,0,4.6,2,4.6,4.6v2.4c2.7,0.3,5.4,0.8,8,1.8c2.8,1,4.2,4.1,3.2,6.9c-0.8,2.1-2.7,3.4-4.9,3.5
	c-3.2-0.9-6.4-1.5-9.7-1.7c-3,0-6.7,0.9-6.7,3.2c0,1.6,2.2,2.4,7.5,3.6C53.5,42,63,44.3,63,54.7C63.1,61.7,57.9,66.8,50,68.1
	L50,68.1z"/>
<path class="st1-money" d="M70.2,237.7c-11.7,0-21.2,9.5-21.2,21.2c0,11.7,9.5,21.2,21.2,21.2s21.2-9.5,21.2-21.2
	C91.4,247.2,81.9,237.7,70.2,237.7z M72.2,269.2v1.1c0,1.2-0.9,2.1-2.1,2.1s-2.1-0.9-2.1-2.1v-1.1c-1.5-0.2-2.9-0.6-4.2-1.2
	c-1.3-0.5-1.9-1.9-1.4-3.2c0.4-0.9,1.3-1.6,2.3-1.6c1.8,0.6,3.6,1,5.5,1.1c3,0,3-1.1,3-1.5c0-0.8-2.1-1.1-3.3-1.4
	c-3-0.7-7.5-1.9-7.5-6.5c0.1-3.2,2.5-5.9,5.6-6.4v-1.2c0-1.2,0.9-2.1,2.1-2.1c1.2,0,2.1,0.9,2.1,2.1v1.1c1.3,0.1,2.5,0.4,3.7,0.8
	c1.3,0.5,1.9,1.9,1.5,3.2c-0.4,1-1.2,1.6-2.3,1.6c-1.5-0.4-3-0.7-4.5-0.8c-1.4,0-3.1,0.4-3.1,1.5c0,0.7,1,1.1,3.5,1.7
	c2.9,0.7,7.3,1.7,7.3,6.6C78.3,266.3,75.9,268.6,72.2,269.2L72.2,269.2z"/>
<path class="st1-money" d="M111.8,169.9c-15.5,0-28,12.5-28,28s12.5,28,28,28s28-12.5,28-28S127.3,169.9,111.8,169.9z M114.4,211.6v1.5
	c0,1.5-1.3,2.8-2.8,2.8c-1.5,0-2.8-1.3-2.8-2.8v-1.5c-1.9-0.3-3.8-0.8-5.6-1.5c-1.7-0.7-2.5-2.6-1.9-4.3c0.5-1.2,1.7-2.1,3-2.1
	c2.3,0.8,4.8,1.3,7.3,1.5c4,0,4-1.4,4-2c0-1-2.8-1.4-4.4-1.9c-3.9-1-9.9-2.5-9.9-8.6c0.1-4.3,3.3-7.8,7.5-8.4v-1.6
	c0-1.5,1.3-2.8,2.8-2.8c1.5,0,2.8,1.3,2.8,2.8v1.5c1.7,0.2,3.3,0.5,4.9,1.1c1.7,0.6,2.6,2.5,1.9,4.2c-0.5,1.3-1.6,2.1-3,2.1
	c-1.9-0.6-3.9-0.9-6-1c-1.9,0-4.1,0.5-4.1,2c0,1,1.3,1.5,4.6,2.2c3.8,0.9,9.7,2.3,9.7,8.7C122.4,207.7,119.3,210.8,114.4,211.6
	L114.4,211.6z"/>
<path class="st2-money" d="M126.8,81.8c-15.2,0-27.6,12.4-27.6,27.6s12.4,27.6,27.6,27.6s27.6-12.4,27.6-27.6S142,81.8,126.8,81.8z
	 M129.4,122.9v1.5c0,1.5-1.2,2.8-2.8,2.8s-2.8-1.2-2.8-2.8v-1.5c-1.9-0.3-3.8-0.8-5.5-1.5c-1.7-0.6-2.5-2.5-1.9-4.2
	c0.5-1.2,1.6-2,2.9-2.1c2.3,0.8,4.7,1.3,7.2,1.5c4,0,4-1.4,4-2c0-1-2.7-1.4-4.3-1.8c-3.9-1-9.7-2.5-9.7-8.5c0.1-4.2,3.2-7.7,7.4-8.3
	v-1.6c0-1.5,1.2-2.8,2.8-2.8c1.5,0,2.8,1.2,2.8,2.8v1.4c1.6,0.2,3.3,0.5,4.8,1.1c1.7,0.6,2.5,2.5,1.9,4.2c-0.5,1.2-1.6,2.1-2.9,2.1
	c-1.9-0.6-3.9-0.9-5.9-1c-1.8,0-4.1,0.5-4.1,1.9c0,1,1.3,1.4,4.5,2.2c3.8,0.9,9.5,2.3,9.5,8.6C137.3,119.1,134.2,122.1,129.4,122.9
	L129.4,122.9z"/>
<path class="st1-money" d="M57.1,131.8c-11.7,0-21.2,9.5-21.2,21.2c0,11.7,9.5,21.2,21.2,21.2s21.2-9.5,21.2-21.2
	C78.3,141.3,68.8,131.8,57.1,131.8z M59.1,163.3v1.1c0,1.2-0.9,2.1-2.1,2.1s-2.1-0.9-2.1-2.1v-1.1c-1.5-0.2-2.9-0.6-4.2-1.2
	c-1.3-0.5-1.9-1.9-1.4-3.2c0.4-0.9,1.3-1.6,2.3-1.6c1.8,0.6,3.6,1,5.5,1.1c3,0,3-1.1,3-1.5c0-0.8-2.1-1.1-3.3-1.4
	c-3-0.7-7.5-1.9-7.5-6.5c0.1-3.2,2.5-5.9,5.6-6.4v-1.2c0-1.2,0.9-2.1,2.1-2.1c1.2,0,2.1,0.9,2.1,2.1v1.1c1.3,0.1,2.5,0.4,3.7,0.8
	c1.3,0.5,1.9,1.9,1.5,3.2c-0.4,1-1.2,1.6-2.3,1.6c-1.5-0.4-3-0.7-4.5-0.8c-1.4,0-3.1,0.4-3.1,1.5c0,0.7,1,1.1,3.5,1.7
	c2.9,0.7,7.3,1.7,7.3,6.6C65.2,160.4,62.8,162.7,59.1,163.3L59.1,163.3z"/>
</svg>
